<?xml version="1.0" encoding="utf-8"?>
<!-- Generator: Adobe Illustrator 18.0.0, SVG Export Plug-In . SVG Version: 6.00 Build 0)  -->
<!DOCTYPE svg PUBLIC "-//W3C//DTD SVG 1.1//EN" "http://www.w3.org/Graphics/SVG/1.1/DTD/svg11.dtd">
<svg version="1.1" xmlns="http://www.w3.org/2000/svg" xmlns:xlink="http://www.w3.org/1999/xlink" x="0px" y="0px" width="2800px"
	 height="1800px" viewBox="0 0 2800 1800" enable-background="new 0 0 2800 1800" xml:space="preserve">
<g id="BACKGROUND">
	<linearGradient id="SVGID_1_" gradientUnits="userSpaceOnUse" x1="1400" y1="1800" x2="1400" y2="-6.285427e-08">
		<stop  offset="0.4568" style="stop-color:#FFFFFF"/>
		<stop  offset="0.7098" style="stop-color:#FDFEFF"/>
		<stop  offset="0.8009" style="stop-color:#F6FCFE"/>
		<stop  offset="0.8659" style="stop-color:#EBF7FE"/>
		<stop  offset="0.9184" style="stop-color:#DAF1FC"/>
		<stop  offset="0.9629" style="stop-color:#C4E9FB"/>
		<stop  offset="1" style="stop-color:#ABE0F9"/>
	</linearGradient>
	<rect fill="url(#SVGID_1_)" width="2800" height="1800"/>
</g>
<g id="OBJECTS">
	<path fill="#EEF8FD" d="M2463.2,137.4c-117.3,0-220.6,60-280.9,151c-12.7-2.3-25.7-3.5-39-3.5c-87.9,0-163.6,51.9-198.3,126.6
		c-35,2.4-67.9,12.1-97.3,27.6c-29.7-13.3-62.6-20.7-97.2-20.7c-82.8,0-155.8,42.3-198.4,106.5c-32.8,5.6-62.7,20-87,40.6
		c-20-8.3-42-12.9-65-12.9c-48.1,0-91.5,20-122.3,52.2c-34.1-56.1-95.7-93.6-166.2-93.6c-49.5,0-94.7,18.6-129,49.1
		c-20.1-8.1-42.2-12.6-65.2-12.6c-15.5,0-30.6,2-44.9,5.9C829.9,482,751.9,434,662.6,434c-13.3,0-26.2,1.1-38.9,3.1
		c-18.4-155.3-150.5-275.8-310.7-275.8C140.1,161.3,0,301.4,0,474.2v247.9v199.1V1070h2800V921.2V722.1V474.2
		C2800,288.2,2649.2,137.4,2463.2,137.4z"/>
	<radialGradient id="SVGID_2_" cx="1400" cy="395.3754" r="395.3754" gradientUnits="userSpaceOnUse">
		<stop  offset="0.2435" style="stop-color:#FFFFFF"/>
		<stop  offset="0.9886" style="stop-color:#FFFFFF;stop-opacity:1.510572e-02"/>
		<stop  offset="1" style="stop-color:#FFFFFF;stop-opacity:0"/>
	</radialGradient>
	<circle fill="url(#SVGID_2_)" cx="1400" cy="395.4" r="395.4"/>
	<g>
		<polygon fill="#D3DAEE" points="524.2,621.8 441.9,580.9 283.2,659.7 371.1,711 		"/>
		<polygon fill="#C6D5ED" points="2480.2,634.1 2213,501.4 2109.4,552.8 2336.3,709.8 		"/>
		<polygon fill="#ACCDEC" points="195.5,721.2 116,811.9 106.5,865.3 371.1,711 283.2,659.7 195.5,608.6 158.7,690.2 		"/>
		<linearGradient id="SVGID_3_" gradientUnits="userSpaceOnUse" x1="2432.4858" y1="793.9849" x2="2432.4858" y2="608.6021">
			<stop  offset="0" style="stop-color:#ACCDEC"/>
			<stop  offset="1" style="stop-color:#FFE5CA"/>
		</linearGradient>
		<polygon fill="url(#SVGID_3_)" points="2457.9,794 2528.7,721.2 2487.9,690.2 2528.7,608.6 2480.2,634.1 2336.3,709.8 		"/>
		<polygon fill="#ACCDEC" points="2800,751.3 2528.7,608.6 2487.9,690.2 2528.7,721.2 2457.9,794 2336.3,709.8 2109.4,552.8 
			2004.3,480.1 1963.6,587.4 2004.3,628.3 1976.6,665.8 2680.2,1015.2 2777.6,1015.2 2800,1015.2 		"/>
		<polygon fill="#C6D5ED" points="1138.7,509.2 1037.4,440.3 788.4,609.5 856.7,649.3 		"/>
		<linearGradient id="SVGID_4_" gradientUnits="userSpaceOnUse" x1="1920.438" y1="665.8029" x2="1920.4381" y2="480.0871">
			<stop  offset="0" style="stop-color:#ACCDEC"/>
			<stop  offset="1" style="stop-color:#FFE5CA"/>
		</linearGradient>
		<polygon fill="url(#SVGID_4_)" points="1976.6,665.8 2004.3,628.3 1963.6,587.4 2004.3,480.1 1836.5,596.2 		"/>
		<polygon fill="#ACCDEC" points="666.8,670.6 573.6,776.9 571.1,791.1 856.7,649.3 788.4,609.5 666.8,538.6 623.7,634.2 		"/>
		<linearGradient id="SVGID_5_" gradientUnits="userSpaceOnUse" x1="700" y1="1015.1846" x2="700" y2="379.443">
			<stop  offset="0" style="stop-color:#ACCDEC"/>
			<stop  offset="1" style="stop-color:#FFE5CA"/>
		</linearGradient>
		<polygon fill="url(#SVGID_5_)" points="1220.4,858.2 1254,697.3 1400,555.5 1332.5,507 1400,379.4 1138.7,509.2 856.7,649.3 
			571.1,791.1 573.6,776.9 666.8,670.6 623.7,634.2 666.8,538.6 524.2,621.8 371.1,711 106.5,865.3 116,811.9 195.5,721.2 
			158.7,690.2 195.5,608.6 0,722.6 0,1015.2 30.5,1015.2 119.8,1015.2 473.4,1015.2 893,1015.2 1097.1,1015.2 		"/>
		<polygon fill="#A4C3E1" points="1976.6,665.8 1836.5,596.2 1400,379.4 1332.5,507 1400,555.5 1254,697.3 1220.4,858.2 
			1097.1,1015.2 1231.1,1015.2 1484.3,1015.2 1755.5,1015.2 1821.4,1015.2 2345.7,1015.2 2680.2,1015.2 		"/>
	</g>
	<path fill="#7FADCC" d="M2727.3,673.7l-6.7-10.7h6.6l-13.9-21h5.8l-17.3-27.2l-17.3,27.2h5.8l-13.9,21h6.6l-12,19h7.3l-8.8,14
		l-97.4,37.2l-8.3-13.2h7.3l-12-18h6.6l-13.9-22h5.8l-17.3-27.2l-17.3,27.2h5.8l-13.9,22h6.6l-12,18h7.3l-13.8,22h8.2l-2.2,3.5
		l-84.6-13.3l-4.7-7.2h7.3l-12-19h6.6l-13.9-22h5.8l-17.3-27.2l-17.3,27.2h5.8l-13.9,22h6.6l-12,19h7.3l-13.8,22h1.3l-114.7,42.5
		l-8.5-13.5h6.6l-13.9-22h5.8l-17.3-27.2l-17.3,27.2h5.8l-13.9,22h6.6l-12,19h7.3l-11.1,17.3l-83.4,30.9l-7.2-11.2h6.6l-13.9-22h5.8
		l-17.3-27.2l-17.3,27.2h5.8l-4.9,7.3l-8.3-13.3h6.6l-13.9-21h5.8l-17.3-27.2l-17.3,27.2h5.8l-13.9,21h6.6l-9.1,14.6l-14.4-22.7
		l-17.3,27.1h5.8l-13.9,22h6.6l-3.2,5h-9.5l-50.8,17.1l-1.3-2.1h7.3l-12-19h6.6l-13.9-22h5.8l-17.3-27.2l-17.3,27.2h5.8l-13.9,22
		h6.6l-12,19h7.3l-13.8,22h3.7l-43.6,14.6l-29.9-4.3l-2.7-4.3h6.6l-13.9-22h5.8l-17.3-27.2l-17.3,27.2h5.8l-5,7.8l-8.1-12.8h6.6
		l-13.9-22h5.8l-17.3-27.2l-17.3,27.2h5.8l-13.9,22h6.6l-11.3,17.9l-58-8.1l-305.6,86.9l-5-7.8h7.3l-12-19h6.6l-13.9-22h5.8
		l-17.3-27.2l-17.3,27.2h5.8l-13.9,22h6.6l-12,19h7.3l-9.1,13.9l-8-12.9h5.8l-17.3-27.2l-17.3,27.2h5.8l-13.9,22h6.6l-9.7,15.5
		l-1.4,0.5l-155.2-60l-5-8h8.2l-13.8-21h7.3l-12-19h6.6l-13.9-22h5.8l-17.3-27.2L997.3,864h5.8l-13.9,22h6.6L985,903l-6.4-10h7.3
		l-12-19h6.6l-13.9-22h5.8L955,824.8L937.8,852h5.8l-13.9,22h6.6l-8.7,13.6l-37.1-14.4L750,817.3l-2.8-4.3h8.2l-13.8-22h7.3l-12-19
		h6.6l-13.9-22h5.8L718,722.8L700.7,750h5.8l-13.9,22h6.6l-3.8,6.1l-9-14.1h5.4l-15.9-25L660,764h5.4l-12.8,20h6l-11.1,17h6.7
		l-11.5,18.3l-38.4,7.4L593.1,809h5.8l-17.3-27.2L564.4,809h5.8l-13.9,22h6.6l-2.8,4.5l-31.8,6.2l-25.6-9.2l-3.7-5.6h8.2l-13.8-22
		h7.3l-12-19h6.6l-13.9-22h5.8l-17.3-27.2L452.4,764h5.8l-13.9,22h6.6l-12,19h7.3l-3.5,5.4l-85.2-31.3l-7-11.1h8.2l-13.8-22h7.3
		l-12-19h6.6l-13.9-22h5.8l-17.3-27.2L303.9,705h5.8l-8.9,14.1L289.2,701h5.8l-17.3-27.2L260.4,701h5.8l-13.9,22h6.6l-10.2,16
		l-37.8-13.9l-50.9,5.4l-8.7-13.5h10.1l-17.1-27h9l-14.9-24h8.1l-17.3-27h7.2L115,605.3L93.6,639h7.2l-17.3,27h8.1l-8.1,13l-3.4-5
		h6.6l-13.9-22h5.8l-17.3-27.2L44.1,652h5.8L36,674h6.6l-12,19h7.3l-3.4,5.3L0,685.2V1729h2800V646L2727.3,673.7z M300.8,729.4
		l-1.5-2.4h3L300.8,729.4z M297.5,724.4l-1-1.5h2L297.5,724.4z M1253.8,979.8l-1-1.8h2.8l-0.8,1.4L1253.8,979.8z M991,905l-2.3,3.7
		l-2.3-3.7H991z M2006.5,823l-3.6,5.7l-3.6-5.7h5.8H2006.5z"/>
	<rect y="1131" fill="#2E728C" width="2800" height="669"/>
	<g>
		<polygon fill="#4D4D4D" points="1366.9,1110.6 1369.3,1110.5 1369.3,1108.8 1369.3,1107.1 1369.3,1105.3 1369.3,1103.6 
			1369.3,1101.8 1366.9,1101.6 		"/>
		<polygon fill="#4D4D4D" points="104,1105.6 104,1105.5 29,1105.8 29,1123.6 131.4,1122.6 131.4,1105.5 		"/>
		<polygon fill="#4D4D4D" points="479,1104.4 479,1104.3 426,1104.5 426,1119.7 498.5,1119 498.5,1104.3 		"/>
		<polygon fill="#4D4D4D" points="691,1103.7 691,1103.7 647,1103.8 647,1117.6 706,1117 706,1103.7 		"/>
		<polygon fill="#4D4D4D" points="820,1103.3 820,1103.3 785.5,1103.4 785.5,1116.2 832.3,1115.7 832.3,1103.3 		"/>
		<polygon fill="#4D4D4D" points="911.5,1103 911.5,1103 884,1103.1 884,1115.2 921.8,1114.9 921.8,1103 		"/>
		<polygon fill="#4D4D4D" points="976.3,1102.8 976.3,1102.8 955.3,1102.8 955.3,1114.6 985.3,1114.3 985.3,1102.8 		"/>
		<polygon fill="#4D4D4D" points="1024.3,1102.6 1024.3,1102.6 1007.3,1102.7 1007.3,1114 1032.3,1113.8 1032.3,1102.6 		"/>
		<polygon fill="#4D4D4D" points="1064.3,1102.5 1064.3,1102.5 1050,1102.5 1050,1113.6 1071.4,1113.4 1071.4,1102.5 		"/>
		<polygon fill="#4D4D4D" points="1097,1102.4 1097,1102.4 1084.7,1102.4 1084.7,1113.3 1103.4,1113.1 1103.4,1102.4 		"/>
		<polygon fill="#4D4D4D" points="1123,1102.3 1123,1102.3 1111.9,1102.3 1111.9,1113 1128.9,1112.9 1128.9,1102.3 		"/>
		<polygon fill="#4D4D4D" points="1148,1102.2 1148,1102.2 1137.9,1102.3 1137.9,1112.8 1153.3,1112.6 1153.3,1102.2 		"/>
		<polygon fill="#4D4D4D" points="1167.2,1102.2 1167.2,1102.2 1157.1,1102.2 1157.1,1112.6 1172.1,1112.4 1172.1,1102.2 		"/>
		<polygon fill="#4D4D4D" points="1183.5,1102.1 1183.5,1102.1 1174.5,1102.1 1174.5,1112.4 1188.1,1112.3 1188.1,1102.1 		"/>
		<polygon fill="#4D4D4D" points="1196.5,1102.1 1196.5,1102.1 1189,1102.1 1189,1112.3 1200.8,1112.2 1200.8,1102.1 		"/>
		<polygon fill="#4D4D4D" points="1209,1102 1209,1102 1201.5,1102.1 1201.5,1112.2 1213,1112 1213,1102 		"/>
		<polygon fill="#4D4D4D" points="1221.3,1102 1221.3,1102 1213.8,1102 1213.8,1112 1225.1,1111.9 1225.1,1102 		"/>
		<polygon fill="#4D4D4D" points="1233.7,1102 1233.7,1102 1226.2,1102 1226.2,1111.9 1237.2,1111.8 1237.2,1102 		"/>
		<polygon fill="#4D4D4D" points="1246,1101.9 1246,1101.9 1238.5,1101.9 1238.5,1111.8 1249.3,1111.7 1249.3,1101.9 		"/>
		<polygon fill="#4D4D4D" points="1257.7,1101.9 1257.7,1101.9 1250.8,1101.9 1250.8,1111.7 1260.7,1111.6 1260.7,1101.9 		"/>
		<polygon fill="#4D4D4D" points="1269,1101.9 1269,1101.8 1262.1,1101.9 1262.1,1111.6 1271.8,1111.5 1271.8,1101.8 		"/>
		<polygon fill="#4D4D4D" points="1279.4,1101.8 1279.4,1101.8 1273.4,1101.8 1273.4,1111.5 1282,1111.4 1282,1101.8 		"/>
		<polygon fill="#4D4D4D" points="1289.2,1101.8 1289.2,1101.8 1283.3,1101.8 1283.3,1111.4 1291.6,1111.3 1291.6,1101.8 		"/>
		<polygon fill="#4D4D4D" points="1298.4,1101.8 1298.4,1101.8 1293.1,1101.8 1293.1,1111.3 1300.6,1111.2 1300.6,1101.8 		"/>
		<polygon fill="#4D4D4D" points="1307.2,1101.7 1307.2,1101.7 1301.8,1101.7 1301.8,1111.2 1309.1,1111.1 1309.1,1101.7 		"/>
		<polygon fill="#4D4D4D" points="1315.4,1101.7 1315.4,1101.7 1310.6,1101.7 1310.6,1111.1 1317.2,1111 1317.2,1101.7 		"/>
		<polygon fill="#4D4D4D" points="1323.2,1101.7 1323.2,1101.7 1318.5,1101.7 1318.5,1111 1324.9,1111 1324.9,1101.7 		"/>
		<polygon fill="#4D4D4D" points="1330.7,1101.7 1330.7,1101.6 1326.3,1101.7 1326.3,1110.9 1332.1,1110.9 1332.1,1101.6 		"/>
		<polygon fill="#4D4D4D" points="1337.8,1101.6 1337.8,1101.6 1333.4,1101.6 1333.4,1110.9 1339.1,1110.8 1339.1,1101.6 		"/>
		<polygon fill="#4D4D4D" points="1344.8,1101.6 1344.8,1101.6 1340.5,1101.6 1340.5,1110.8 1346,1110.8 1346,1101.6 		"/>
		<polygon fill="#4D4D4D" points="1351.9,1101.6 1351.9,1101.6 1347.6,1101.6 1347.6,1110.7 1353,1110.7 1353,1101.6 		"/>
		<polygon fill="#4D4D4D" points="1359,1101.6 1359,1101.6 1354.7,1101.6 1354.7,1110.7 1359.9,1110.6 1359.9,1101.6 		"/>
		<polygon fill="#4D4D4D" points="1366.4,1101.5 1366.1,1101.5 1366.1,1101.5 1361.8,1101.6 1361.8,1110.6 1366.9,1110.6 
			1366.9,1101.6 		"/>
		<polygon fill="#4D4D4D" points="1430.7,1101.8 1430.7,1103.6 1430.7,1105.3 1430.7,1107.1 1430.7,1108.8 1430.7,1110.5 
			1433.1,1110.6 1433.1,1101.6 		"/>
		<polygon fill="#4D4D4D" points="2696,1105.5 2696,1105.6 2668.6,1105.5 2668.6,1122.6 2771,1123.6 2771,1105.8 		"/>
		<polygon fill="#4D4D4D" points="2321,1104.3 2321,1104.4 2301.5,1104.3 2301.5,1119 2374,1119.7 2374,1104.5 		"/>
		<polygon fill="#4D4D4D" points="2109,1103.7 2109,1103.7 2094,1103.7 2094,1117 2153,1117.6 2153,1103.8 		"/>
		<polygon fill="#4D4D4D" points="1980,1103.3 1980,1103.3 1967.7,1103.3 1967.7,1115.7 2014.5,1116.2 2014.5,1103.4 		"/>
		<polygon fill="#4D4D4D" points="1888.5,1103 1888.5,1103 1878.2,1103 1878.2,1114.9 1916,1115.2 1916,1103.1 		"/>
		<polygon fill="#4D4D4D" points="1823.7,1102.8 1823.7,1102.8 1814.7,1102.8 1814.7,1114.3 1844.7,1114.6 1844.7,1102.8 		"/>
		<polygon fill="#4D4D4D" points="1775.7,1102.6 1775.7,1102.6 1767.7,1102.6 1767.7,1113.8 1792.7,1114 1792.7,1102.7 		"/>
		<polygon fill="#4D4D4D" points="1735.7,1102.5 1735.7,1102.5 1728.6,1102.5 1728.6,1113.4 1750,1113.6 1750,1102.5 		"/>
		<polygon fill="#4D4D4D" points="1703,1102.4 1703,1102.4 1696.6,1102.4 1696.6,1113.1 1715.3,1113.3 1715.3,1102.4 		"/>
		<polygon fill="#4D4D4D" points="1677,1102.3 1677,1102.3 1671.1,1102.3 1671.1,1112.9 1688.1,1113 1688.1,1102.3 		"/>
		<polygon fill="#4D4D4D" points="1652,1102.2 1652,1102.2 1646.7,1102.2 1646.7,1112.6 1662.1,1112.8 1662.1,1102.3 		"/>
		<polygon fill="#4D4D4D" points="1632.8,1102.2 1632.8,1102.2 1627.9,1102.2 1627.9,1112.4 1642.9,1112.6 1642.9,1102.2 		"/>
		<polygon fill="#4D4D4D" points="1616.5,1102.1 1616.5,1102.1 1611.9,1102.1 1611.9,1112.3 1625.5,1112.4 1625.5,1102.1 		"/>
		<polygon fill="#4D4D4D" points="1603.5,1102.1 1603.5,1102.1 1599.2,1102.1 1599.2,1112.2 1611,1112.3 1611,1102.1 		"/>
		<polygon fill="#4D4D4D" points="1591,1102 1591,1102 1587,1102 1587,1112 1598.5,1112.2 1598.5,1102.1 		"/>
		<polygon fill="#4D4D4D" points="1578.7,1102 1578.7,1102 1574.9,1102 1574.9,1111.9 1586.2,1112 1586.2,1102 		"/>
		<polygon fill="#4D4D4D" points="1566.3,1102 1566.3,1102 1562.8,1102 1562.8,1111.8 1573.8,1111.9 1573.8,1102 		"/>
		<polygon fill="#4D4D4D" points="1554,1101.9 1554,1101.9 1550.7,1101.9 1550.7,1111.7 1561.5,1111.8 1561.5,1101.9 		"/>
		<polygon fill="#4D4D4D" points="1542.3,1101.9 1542.3,1101.9 1539.3,1101.9 1539.3,1111.6 1549.2,1111.7 1549.2,1101.9 		"/>
		<polygon fill="#4D4D4D" points="1531,1101.8 1531,1101.9 1528.2,1101.8 1528.2,1111.5 1537.9,1111.6 1537.9,1101.9 		"/>
		<polygon fill="#4D4D4D" points="1520.6,1101.8 1520.6,1101.8 1518,1101.8 1518,1111.4 1526.6,1111.5 1526.6,1101.8 		"/>
		<polygon fill="#4D4D4D" points="1510.8,1101.8 1510.8,1101.8 1508.4,1101.8 1508.4,1111.3 1516.7,1111.4 1516.7,1101.8 		"/>
		<polygon fill="#4D4D4D" points="1501.6,1101.8 1501.6,1101.8 1499.4,1101.8 1499.4,1111.2 1506.9,1111.3 1506.9,1101.8 		"/>
		<polygon fill="#4D4D4D" points="1492.8,1101.7 1492.8,1101.7 1490.9,1101.7 1490.9,1111.1 1498.2,1111.2 1498.2,1101.7 		"/>
		<polygon fill="#4D4D4D" points="1484.6,1101.7 1484.6,1101.7 1482.8,1101.7 1482.8,1111 1489.4,1111.1 1489.4,1101.7 		"/>
		<polygon fill="#4D4D4D" points="1476.8,1101.7 1476.8,1101.7 1475.1,1101.7 1475.1,1111 1481.5,1111 1481.5,1101.7 		"/>
		<polygon fill="#4D4D4D" points="1469.3,1101.6 1469.3,1101.7 1467.9,1101.6 1467.9,1110.9 1473.7,1110.9 1473.7,1101.7 		"/>
		<polygon fill="#4D4D4D" points="1462.2,1101.6 1462.2,1101.6 1460.9,1101.6 1460.9,1110.8 1466.6,1110.9 1466.6,1101.6 		"/>
		<polygon fill="#4D4D4D" points="1455.2,1101.6 1455.2,1101.6 1454,1101.6 1454,1110.8 1459.5,1110.8 1459.5,1101.6 		"/>
		<polygon fill="#4D4D4D" points="1448.1,1101.6 1448.1,1101.6 1447,1101.6 1447,1110.7 1452.4,1110.7 1452.4,1101.6 		"/>
		<polygon fill="#4D4D4D" points="1441,1101.6 1441,1101.6 1440.1,1101.6 1440.1,1110.6 1445.3,1110.7 1445.3,1101.6 		"/>
		<polygon fill="#4D4D4D" points="1433.9,1101.5 1433.9,1101.5 1433.6,1101.5 1433.1,1101.6 1433.1,1110.6 1438.2,1110.6 
			1438.2,1101.6 		"/>
	</g>
	<g>
		<polygon fill="#4D4D4D" points="104,1105.6 104,1105.5 29,1105.8 29,1337 58,1332.9 58,1105.8 		"/>
		<polygon fill="#4D4D4D" points="104,1105.6 104,1105.5 29,1105.8 29,1337 58,1332.9 58,1105.8 		"/>
		<polygon fill="#4D4D4D" points="479,1104.4 479,1104.3 426,1104.5 426,1280.1 447,1277.1 447,1104.5 		"/>
		<polygon fill="#4D4D4D" points="479,1104.4 479,1104.3 426,1104.5 426,1280.1 447,1277.1 447,1104.5 		"/>
		<polygon fill="#4D4D4D" points="691,1103.7 691,1103.7 647,1103.8 647,1248.4 663,1246.1 663,1103.8 		"/>
		<polygon fill="#4D4D4D" points="691,1103.7 691,1103.7 647,1103.8 647,1248.4 663,1246.1 663,1103.8 		"/>
		<polygon fill="#4D4D4D" points="820,1103.3 820,1103.3 785,1103.4 785,1228.6 798,1226.7 798,1103.4 		"/>
		<polygon fill="#4D4D4D" points="820,1103.3 820,1103.3 785,1103.4 785,1228.6 798,1226.7 798,1103.4 		"/>
		<polygon fill="#4D4D4D" points="911,1103 911,1103 884,1103.1 884,1214.4 895,1212.9 895,1103.1 		"/>
		<polygon fill="#4D4D4D" points="911,1103 911,1103 884,1103.1 884,1214.4 895,1212.9 895,1103.1 		"/>
		<polygon fill="#4D4D4D" points="976,1102.8 976,1102.8 955,1102.8 955,1204.2 965,1202.9 965,1102.8 		"/>
		<polygon fill="#4D4D4D" points="976,1102.8 976,1102.8 955,1102.8 955,1204.2 965,1202.9 965,1102.8 		"/>
		<polygon fill="#4D4D4D" points="1024,1102.6 1024,1102.6 1007,1102.7 1007,1196.7 1016,1195.6 1016,1102.7 		"/>
		<polygon fill="#4D4D4D" points="1024,1102.6 1024,1102.6 1007,1102.7 1007,1196.7 1016,1195.6 1016,1102.7 		"/>
		<polygon fill="#4D4D4D" points="1064,1102.5 1064,1102.5 1050,1102.5 1050,1190.6 1057,1189.6 1057,1102.5 		"/>
		<polygon fill="#4D4D4D" points="1064,1102.5 1064,1102.5 1050,1102.5 1050,1190.6 1057,1189.6 1057,1102.5 		"/>
		<polygon fill="#4D4D4D" points="1097,1102.4 1097,1102.4 1085,1102.4 1085,1185.7 1091,1184.7 1091,1102.4 		"/>
		<polygon fill="#4D4D4D" points="1097,1102.4 1097,1102.4 1085,1102.4 1085,1185.7 1091,1184.7 1091,1102.4 		"/>
		<polygon fill="#4D4D4D" points="1123,1102.3 1123,1102.3 1112,1102.3 1112,1181.7 1118,1180.9 1118,1102.3 		"/>
		<polygon fill="#4D4D4D" points="1123,1102.3 1123,1102.3 1112,1102.3 1112,1181.7 1118,1180.9 1118,1102.3 		"/>
		<polygon fill="#4D4D4D" points="1148,1102.2 1148,1102.2 1138,1102.3 1138,1178 1143,1177.2 1143,1102.3 		"/>
		<polygon fill="#4D4D4D" points="1148,1102.2 1148,1102.2 1138,1102.3 1138,1178 1143,1177.2 1143,1102.3 		"/>
		<polygon fill="#4D4D4D" points="1167,1102.2 1167,1102.2 1157,1102.2 1157,1175.3 1162,1174.5 1162,1102.2 		"/>
		<polygon fill="#4D4D4D" points="1167,1102.2 1167,1102.2 1157,1102.2 1157,1175.3 1162,1174.5 1162,1102.2 		"/>
		<polygon fill="#4D4D4D" points="1184,1102.1 1184,1102.1 1174,1102.1 1174,1172.8 1179,1172.1 1179,1102.1 		"/>
		<polygon fill="#4D4D4D" points="1184,1102.1 1184,1102.1 1174,1102.1 1174,1172.8 1179,1172.1 1179,1102.1 		"/>
		<polygon fill="#4D4D4D" points="1196,1102.1 1196,1102.1 1189,1102.1 1189,1170.7 1193,1170.1 1193,1102.1 		"/>
		<polygon fill="#4D4D4D" points="1196,1102.1 1196,1102.1 1189,1102.1 1189,1170.7 1193,1170.1 1193,1102.1 		"/>
		<polygon fill="#4D4D4D" points="1209,1102 1209,1102 1201,1102.1 1201,1168.9 1206,1168.3 1206,1102.1 		"/>
		<polygon fill="#4D4D4D" points="1209,1102 1209,1102 1201,1102.1 1201,1168.9 1206,1168.3 1206,1102.1 		"/>
		<polygon fill="#4D4D4D" points="1221,1102 1221,1102 1214,1102 1214,1167.1 1218,1166.6 1218,1102 		"/>
		<polygon fill="#4D4D4D" points="1221,1102 1221,1102 1214,1102 1214,1167.1 1218,1166.6 1218,1102 		"/>
		<polygon fill="#4D4D4D" points="1234,1102 1234,1102 1226,1102 1226,1165.4 1230,1164.8 1230,1102 		"/>
		<polygon fill="#4D4D4D" points="1234,1102 1234,1102 1226,1102 1226,1165.4 1230,1164.8 1230,1102 		"/>
		<polygon fill="#4D4D4D" points="1246,1101.9 1246,1101.9 1238,1101.9 1238,1163.6 1242,1163.1 1242,1101.9 		"/>
		<polygon fill="#4D4D4D" points="1246,1101.9 1246,1101.9 1238,1101.9 1238,1163.6 1242,1163.1 1242,1101.9 		"/>
		<polygon fill="#4D4D4D" points="1258,1101.9 1258,1101.9 1251,1101.9 1251,1161.8 1254,1161.4 1254,1101.9 		"/>
		<polygon fill="#4D4D4D" points="1258,1101.9 1258,1101.9 1251,1101.9 1251,1161.8 1254,1161.4 1254,1101.9 		"/>
		<polygon fill="#4D4D4D" points="1269,1101.9 1269,1101.8 1262,1101.9 1262,1160.2 1265,1159.8 1265,1101.9 		"/>
		<polygon fill="#4D4D4D" points="1269,1101.9 1269,1101.8 1262,1101.9 1262,1160.2 1265,1159.8 1265,1101.9 		"/>
		<polygon fill="#4D4D4D" points="1279,1101.8 1279,1101.8 1273,1101.8 1273,1158.6 1276,1158.2 1276,1101.8 		"/>
		<polygon fill="#4D4D4D" points="1279,1101.8 1279,1101.8 1273,1101.8 1273,1158.6 1276,1158.2 1276,1101.8 		"/>
		<polygon fill="#4D4D4D" points="1289,1101.8 1289,1101.8 1283,1101.8 1283,1157.2 1286,1156.8 1286,1101.8 		"/>
		<polygon fill="#4D4D4D" points="1289,1101.8 1289,1101.8 1283,1101.8 1283,1157.2 1286,1156.8 1286,1101.8 		"/>
		<polygon fill="#4D4D4D" points="1298,1101.8 1298,1101.8 1293,1101.8 1293,1155.8 1295,1155.4 1295,1101.8 		"/>
		<polygon fill="#4D4D4D" points="1298,1101.8 1298,1101.8 1293,1101.8 1293,1155.8 1295,1155.4 1295,1101.8 		"/>
		<polygon fill="#4D4D4D" points="1307,1101.7 1307,1101.7 1302,1101.7 1302,1154.5 1304,1154.2 1304,1101.7 		"/>
		<polygon fill="#4D4D4D" points="1307,1101.7 1307,1101.7 1302,1101.7 1302,1154.5 1304,1154.2 1304,1101.7 		"/>
		<polygon fill="#4D4D4D" points="1315,1101.7 1315,1101.7 1311,1101.7 1311,1153.3 1312,1153 1312,1101.7 		"/>
		<polygon fill="#4D4D4D" points="1315,1101.7 1315,1101.7 1311,1101.7 1311,1153.3 1312,1153 1312,1101.7 		"/>
		<polygon fill="#4D4D4D" points="1323,1101.7 1323,1101.7 1318,1101.7 1318,1152.1 1320,1151.9 1320,1101.7 		"/>
		<polygon fill="#4D4D4D" points="1323,1101.7 1323,1101.7 1318,1101.7 1318,1152.1 1320,1151.9 1320,1101.7 		"/>
		<polygon fill="#4D4D4D" points="1331,1101.7 1331,1101.6 1326,1101.7 1326,1151 1328,1150.8 1328,1101.7 		"/>
		<polygon fill="#4D4D4D" points="1331,1101.7 1331,1101.6 1326,1101.7 1326,1151 1328,1150.8 1328,1101.7 		"/>
		<polygon fill="#4D4D4D" points="1338,1101.6 1338,1101.6 1333,1101.6 1333,1150 1335,1149.8 1335,1101.6 		"/>
		<polygon fill="#4D4D4D" points="1338,1101.6 1338,1101.6 1333,1101.6 1333,1150 1335,1149.8 1335,1101.6 		"/>
		<polygon fill="#4D4D4D" points="1345,1101.6 1345,1101.6 1341,1101.6 1341,1149 1342,1148.8 1342,1101.6 		"/>
		<polygon fill="#4D4D4D" points="1345,1101.6 1345,1101.6 1341,1101.6 1341,1149 1342,1148.8 1342,1101.6 		"/>
		<polygon fill="#4D4D4D" points="1352,1101.6 1352,1101.6 1348,1101.6 1348,1148 1349,1147.8 1349,1101.6 		"/>
		<polygon fill="#4D4D4D" points="1352,1101.6 1352,1101.6 1348,1101.6 1348,1148 1349,1147.8 1349,1101.6 		"/>
		<polygon fill="#4D4D4D" points="1359,1101.6 1359,1101.6 1355,1101.6 1355,1146.9 1356,1146.8 1356,1101.6 		"/>
		<polygon fill="#4D4D4D" points="1359,1101.6 1359,1101.6 1355,1101.6 1355,1146.9 1356,1146.8 1356,1101.6 		"/>
		<polygon fill="#4D4D4D" points="1366,1101.5 1366,1101.5 1362,1101.6 1362,1145.9 1363,1145.8 1363,1101.6 		"/>
		<polygon fill="#4D4D4D" points="1366,1101.5 1366,1101.5 1362,1101.6 1362,1145.9 1363,1145.8 1363,1101.6 		"/>
		<polygon fill="#4D4D4D" points="2742,1332.9 2771,1337 2771,1114.8 2742,1114.7 		"/>
		<polygon fill="#4D4D4D" points="2742,1332.9 2771,1337 2771,1114.8 2742,1114.7 		"/>
		<polygon fill="#4D4D4D" points="2353,1277.1 2374,1280.1 2374,1113.5 2353,1113.4 		"/>
		<polygon fill="#4D4D4D" points="2353,1277.1 2374,1280.1 2374,1113.5 2353,1113.4 		"/>
		<polygon fill="#4D4D4D" points="2137,1246.1 2153,1248.4 2153,1112.8 2137,1112.8 		"/>
		<polygon fill="#4D4D4D" points="2137,1246.1 2153,1248.4 2153,1112.8 2137,1112.8 		"/>
		<polygon fill="#4D4D4D" points="2002,1226.7 2014,1228.6 2014,1112.4 2002,1112.3 		"/>
		<polygon fill="#4D4D4D" points="2002,1226.7 2014,1228.6 2014,1112.4 2002,1112.3 		"/>
		<polygon fill="#4D4D4D" points="1905,1212.9 1916,1214.4 1916,1112.1 1905,1112 		"/>
		<polygon fill="#4D4D4D" points="1905,1212.9 1916,1214.4 1916,1112.1 1905,1112 		"/>
		<polygon fill="#4D4D4D" points="1835,1202.9 1845,1204.2 1845,1111.8 1835,1111.8 		"/>
		<polygon fill="#4D4D4D" points="1835,1202.9 1845,1204.2 1845,1111.8 1835,1111.8 		"/>
		<polygon fill="#4D4D4D" points="1784,1195.6 1793,1196.7 1793,1111.7 1784,1111.6 		"/>
		<polygon fill="#4D4D4D" points="1784,1195.6 1793,1196.7 1793,1111.7 1784,1111.6 		"/>
		<polygon fill="#4D4D4D" points="1743,1189.6 1750,1190.6 1750,1111.5 1743,1111.5 		"/>
		<polygon fill="#4D4D4D" points="1743,1189.6 1750,1190.6 1750,1111.5 1743,1111.5 		"/>
		<polygon fill="#4D4D4D" points="1709,1184.7 1715,1185.7 1715,1111.4 1709,1111.4 		"/>
		<polygon fill="#4D4D4D" points="1709,1184.7 1715,1185.7 1715,1111.4 1709,1111.4 		"/>
		<polygon fill="#4D4D4D" points="1682,1180.9 1688,1181.7 1688,1111.3 1682,1111.3 		"/>
		<polygon fill="#4D4D4D" points="1682,1180.9 1688,1181.7 1688,1111.3 1682,1111.3 		"/>
		<polygon fill="#4D4D4D" points="1657,1177.2 1662,1178 1662,1111.3 1657,1111.2 		"/>
		<polygon fill="#4D4D4D" points="1657,1177.2 1662,1178 1662,1111.3 1657,1111.2 		"/>
		<polygon fill="#4D4D4D" points="1638,1174.5 1643,1175.3 1643,1111.2 1638,1111.2 		"/>
		<polygon fill="#4D4D4D" points="1638,1174.5 1643,1175.3 1643,1111.2 1638,1111.2 		"/>
		<polygon fill="#4D4D4D" points="1621,1172.1 1625,1172.8 1625,1111.1 1621,1111.1 		"/>
		<polygon fill="#4D4D4D" points="1621,1172.1 1625,1172.8 1625,1111.1 1621,1111.1 		"/>
		<polygon fill="#4D4D4D" points="1607,1170.1 1611,1170.7 1611,1111.1 1607,1111.1 		"/>
		<polygon fill="#4D4D4D" points="1607,1170.1 1611,1170.7 1611,1111.1 1607,1111.1 		"/>
		<polygon fill="#4D4D4D" points="1594,1168.3 1598,1168.9 1598,1111.1 1594,1111 		"/>
		<polygon fill="#4D4D4D" points="1594,1168.3 1598,1168.9 1598,1111.1 1594,1111 		"/>
		<polygon fill="#4D4D4D" points="1582,1166.6 1586,1167.1 1586,1111 1582,1111 		"/>
		<polygon fill="#4D4D4D" points="1582,1166.6 1586,1167.1 1586,1111 1582,1111 		"/>
		<polygon fill="#4D4D4D" points="1570,1164.8 1574,1165.4 1574,1111 1570,1111 		"/>
		<polygon fill="#4D4D4D" points="1570,1164.8 1574,1165.4 1574,1111 1570,1111 		"/>
		<polygon fill="#4D4D4D" points="1558,1163.1 1561,1163.6 1561,1110.9 1558,1110.9 		"/>
		<polygon fill="#4D4D4D" points="1558,1163.1 1561,1163.6 1561,1110.9 1558,1110.9 		"/>
		<polygon fill="#4D4D4D" points="1546,1161.4 1549,1161.8 1549,1110.9 1546,1110.9 		"/>
		<polygon fill="#4D4D4D" points="1546,1161.4 1549,1161.8 1549,1110.9 1546,1110.9 		"/>
		<polygon fill="#4D4D4D" points="1535,1159.8 1538,1160.2 1538,1110.9 1535,1110.9 		"/>
		<polygon fill="#4D4D4D" points="1535,1159.8 1538,1160.2 1538,1110.9 1535,1110.9 		"/>
		<polygon fill="#4D4D4D" points="1524,1158.2 1527,1158.6 1527,1110.8 1524,1110.8 		"/>
		<polygon fill="#4D4D4D" points="1524,1158.2 1527,1158.6 1527,1110.8 1524,1110.8 		"/>
		<polygon fill="#4D4D4D" points="1514,1156.8 1517,1157.2 1517,1110.8 1514,1110.8 		"/>
		<polygon fill="#4D4D4D" points="1514,1156.8 1517,1157.2 1517,1110.8 1514,1110.8 		"/>
		<polygon fill="#4D4D4D" points="1505,1155.4 1507,1155.8 1507,1110.8 1505,1110.8 		"/>
		<polygon fill="#4D4D4D" points="1505,1155.4 1507,1155.8 1507,1110.8 1505,1110.8 		"/>
		<polygon fill="#4D4D4D" points="1496,1154.2 1498,1154.5 1498,1110.7 1496,1110.7 		"/>
		<polygon fill="#4D4D4D" points="1496,1154.2 1498,1154.5 1498,1110.7 1496,1110.7 		"/>
		<polygon fill="#4D4D4D" points="1488,1153 1489,1153.3 1489,1110.7 1488,1110.7 		"/>
		<polygon fill="#4D4D4D" points="1488,1153 1489,1153.3 1489,1110.7 1488,1110.7 		"/>
		<polygon fill="#4D4D4D" points="1480,1151.9 1482,1152.1 1482,1110.7 1480,1110.7 		"/>
		<polygon fill="#4D4D4D" points="1480,1151.9 1482,1152.1 1482,1110.7 1480,1110.7 		"/>
		<polygon fill="#4D4D4D" points="1472,1150.8 1474,1151 1474,1110.7 1472,1110.7 		"/>
		<polygon fill="#4D4D4D" points="1472,1150.8 1474,1151 1474,1110.7 1472,1110.7 		"/>
		<polygon fill="#4D4D4D" points="1465,1149.8 1467,1150 1467,1110.6 1465,1110.6 		"/>
		<polygon fill="#4D4D4D" points="1465,1149.8 1467,1150 1467,1110.6 1465,1110.6 		"/>
		<polygon fill="#4D4D4D" points="1458,1148.8 1459,1149 1459,1110.6 1458,1110.6 		"/>
		<polygon fill="#4D4D4D" points="1458,1148.8 1459,1149 1459,1110.6 1458,1110.6 		"/>
		<polygon fill="#4D4D4D" points="1451,1147.8 1452,1148 1452,1110.6 1451,1110.6 		"/>
		<polygon fill="#4D4D4D" points="1451,1147.8 1452,1148 1452,1110.6 1451,1110.6 		"/>
		<polygon fill="#4D4D4D" points="1444,1146.8 1445,1146.9 1445,1110.6 1444,1110.6 		"/>
		<polygon fill="#4D4D4D" points="1444,1146.8 1445,1146.9 1445,1110.6 1444,1110.6 		"/>
		<polygon fill="#4D4D4D" points="1437,1145.8 1438,1145.9 1438,1110.6 1437,1110.5 		"/>
		<polygon fill="#4D4D4D" points="1437,1145.8 1438,1145.9 1438,1110.6 1437,1110.5 		"/>
		<polygon fill="#666666" points="58,1105.8 58,1332.9 58,1337 131,1326.3 131,1105.5 103.8,1105.6 		"/>
		<polygon fill="#666666" points="58,1105.8 58,1332.9 58,1337 131,1326.3 131,1105.5 103.8,1105.6 		"/>
		<polygon fill="#666666" points="447,1104.5 447,1277.1 447,1280.1 498,1272.5 498,1104.3 479,1104.4 		"/>
		<polygon fill="#666666" points="447,1104.5 447,1277.1 447,1280.1 498,1272.5 498,1104.3 479,1104.4 		"/>
		<polygon fill="#666666" points="663,1103.8 663,1246.1 663,1248.4 706,1242.1 706,1103.7 691,1103.7 		"/>
		<polygon fill="#666666" points="663,1103.8 663,1246.1 663,1248.4 706,1242.1 706,1103.7 691,1103.7 		"/>
		<polygon fill="#666666" points="798,1103.4 798,1226.7 798,1228.6 832,1223.6 832,1103.3 819.6,1103.3 		"/>
		<polygon fill="#666666" points="798,1103.4 798,1226.7 798,1228.6 832,1223.6 832,1103.3 819.6,1103.3 		"/>
		<polygon fill="#666666" points="895,1103.1 895,1212.9 895,1214.4 922,1210.5 922,1103 911.6,1103 		"/>
		<polygon fill="#666666" points="895,1103.1 895,1212.9 895,1214.4 922,1210.5 922,1103 911.6,1103 		"/>
		<polygon fill="#666666" points="965,1102.8 965,1202.9 965,1204.2 985,1201.2 985,1102.8 976.3,1102.8 		"/>
		<polygon fill="#666666" points="965,1102.8 965,1202.9 965,1204.2 985,1201.2 985,1102.8 976.3,1102.8 		"/>
		<polygon fill="#666666" points="1016,1102.7 1016,1195.6 1016,1196.7 1032,1194.3 1032,1102.6 1024.4,1102.6 		"/>
		<polygon fill="#666666" points="1016,1102.7 1016,1195.6 1016,1196.7 1032,1194.3 1032,1102.6 1024.4,1102.6 		"/>
		<polygon fill="#666666" points="1057,1102.5 1057,1189.6 1057,1190.6 1071,1188.6 1071,1102.5 1063.9,1102.5 		"/>
		<polygon fill="#666666" points="1057,1102.5 1057,1189.6 1057,1190.6 1071,1188.6 1071,1102.5 1063.9,1102.5 		"/>
		<polygon fill="#666666" points="1091,1102.4 1091,1184.7 1091,1185.7 1103,1183.9 1103,1102.4 1096.6,1102.4 		"/>
		<polygon fill="#666666" points="1091,1102.4 1091,1184.7 1091,1185.7 1103,1183.9 1103,1102.4 1096.6,1102.4 		"/>
		<polygon fill="#666666" points="1118,1102.3 1118,1180.9 1118,1181.7 1129,1180.2 1129,1102.3 1123.1,1102.3 		"/>
		<polygon fill="#666666" points="1118,1102.3 1118,1180.9 1118,1181.7 1129,1180.2 1129,1102.3 1123.1,1102.3 		"/>
		<polygon fill="#666666" points="1143,1102.3 1143,1177.2 1143,1178 1153,1176.6 1153,1102.2 1147.6,1102.2 		"/>
		<polygon fill="#666666" points="1143,1102.3 1143,1177.2 1143,1178 1153,1176.6 1153,1102.2 1147.6,1102.2 		"/>
		<polygon fill="#666666" points="1162,1102.2 1162,1174.5 1162,1175.3 1172,1173.8 1172,1102.2 1167,1102.2 		"/>
		<polygon fill="#666666" points="1162,1102.2 1162,1174.5 1162,1175.3 1172,1173.8 1172,1102.2 1167,1102.2 		"/>
		<polygon fill="#666666" points="1179,1102.1 1179,1172.1 1179,1172.8 1188,1171.5 1188,1102.1 1183.3,1102.1 		"/>
		<polygon fill="#666666" points="1179,1102.1 1179,1172.1 1179,1172.8 1188,1171.5 1188,1102.1 1183.3,1102.1 		"/>
		<polygon fill="#666666" points="1193,1102.1 1193,1170.1 1193,1170.7 1201,1169.6 1201,1102.1 1196.4,1102.1 		"/>
		<polygon fill="#666666" points="1193,1102.1 1193,1170.1 1193,1170.7 1201,1169.6 1201,1102.1 1196.4,1102.1 		"/>
		<polygon fill="#666666" points="1206,1102.1 1206,1168.3 1206,1168.9 1213,1167.8 1213,1102 1209.1,1102 		"/>
		<polygon fill="#666666" points="1206,1102.1 1206,1168.3 1206,1168.9 1213,1167.8 1213,1102 1209.1,1102 		"/>
		<polygon fill="#666666" points="1218,1102 1218,1166.6 1218,1167.1 1225,1166.1 1225,1102 1221.4,1102 		"/>
		<polygon fill="#666666" points="1218,1102 1218,1166.6 1218,1167.1 1225,1166.1 1225,1102 1221.4,1102 		"/>
		<polygon fill="#666666" points="1230,1102 1230,1164.8 1230,1165.4 1237,1164.3 1237,1102 1233.7,1102 		"/>
		<polygon fill="#666666" points="1230,1102 1230,1164.8 1230,1165.4 1237,1164.3 1237,1102 1233.7,1102 		"/>
		<polygon fill="#666666" points="1242,1101.9 1242,1163.1 1242,1163.6 1249,1162.5 1249,1101.9 1245.9,1101.9 		"/>
		<polygon fill="#666666" points="1242,1101.9 1242,1163.1 1242,1163.6 1249,1162.5 1249,1101.9 1245.9,1101.9 		"/>
		<polygon fill="#666666" points="1254,1101.9 1254,1161.4 1254,1161.8 1261,1160.8 1261,1101.9 1257.9,1101.9 		"/>
		<polygon fill="#666666" points="1254,1101.9 1254,1161.4 1254,1161.8 1261,1160.8 1261,1101.9 1257.9,1101.9 		"/>
		<polygon fill="#666666" points="1265,1101.9 1265,1159.8 1265,1160.2 1272,1159.2 1272,1101.8 1269.1,1101.9 		"/>
		<polygon fill="#666666" points="1265,1101.9 1265,1159.8 1265,1160.2 1272,1159.2 1272,1101.8 1269.1,1101.9 		"/>
		<polygon fill="#666666" points="1276,1101.8 1276,1158.2 1276,1158.6 1282,1157.7 1282,1101.8 1279.4,1101.8 		"/>
		<polygon fill="#666666" points="1276,1101.8 1276,1158.2 1276,1158.6 1282,1157.7 1282,1101.8 1279.4,1101.8 		"/>
		<polygon fill="#666666" points="1286,1101.8 1286,1156.8 1286,1157.2 1292,1156.3 1292,1101.8 1289.6,1101.8 		"/>
		<polygon fill="#666666" points="1286,1101.8 1286,1156.8 1286,1157.2 1292,1156.3 1292,1101.8 1289.6,1101.8 		"/>
		<polygon fill="#666666" points="1295,1101.8 1295,1155.4 1295,1155.8 1301,1155 1301,1101.8 1298.5,1101.8 		"/>
		<polygon fill="#666666" points="1295,1101.8 1295,1155.4 1295,1155.8 1301,1155 1301,1101.8 1298.5,1101.8 		"/>
		<polygon fill="#666666" points="1304,1101.7 1304,1154.2 1304,1154.5 1309,1153.8 1309,1101.7 1307.1,1101.7 		"/>
		<polygon fill="#666666" points="1304,1101.7 1304,1154.2 1304,1154.5 1309,1153.8 1309,1101.7 1307.1,1101.7 		"/>
		<polygon fill="#666666" points="1312,1101.7 1312,1153 1312,1153.3 1317,1152.6 1317,1101.7 1315.1,1101.7 		"/>
		<polygon fill="#666666" points="1312,1101.7 1312,1153 1312,1153.3 1317,1152.6 1317,1101.7 1315.1,1101.7 		"/>
		<polygon fill="#666666" points="1320,1101.7 1320,1151.9 1320,1152.1 1325,1151.4 1325,1101.7 1323.2,1101.7 		"/>
		<polygon fill="#666666" points="1320,1101.7 1320,1151.9 1320,1152.1 1325,1151.4 1325,1101.7 1323.2,1101.7 		"/>
		<polygon fill="#666666" points="1328,1101.7 1328,1150.8 1328,1151 1332,1150.4 1332,1101.6 1330.6,1101.7 		"/>
		<polygon fill="#666666" points="1328,1101.7 1328,1150.8 1328,1151 1332,1150.4 1332,1101.6 1330.6,1101.7 		"/>
		<polygon fill="#666666" points="1335,1101.6 1335,1149.8 1335,1150 1339,1149.4 1339,1101.6 1337.8,1101.6 		"/>
		<polygon fill="#666666" points="1335,1101.6 1335,1149.8 1335,1150 1339,1149.4 1339,1101.6 1337.8,1101.6 		"/>
		<polygon fill="#666666" points="1342,1101.6 1342,1148.8 1342,1149 1346,1148.4 1346,1101.6 1344.9,1101.6 		"/>
		<polygon fill="#666666" points="1342,1101.6 1342,1148.8 1342,1149 1346,1148.4 1346,1101.6 1344.9,1101.6 		"/>
		<polygon fill="#666666" points="1349,1101.6 1349,1147.8 1349,1148 1353,1147.3 1353,1101.6 1352.1,1101.6 		"/>
		<polygon fill="#666666" points="1349,1101.6 1349,1147.8 1349,1148 1353,1147.3 1353,1101.6 1352.1,1101.6 		"/>
		<polygon fill="#666666" points="1356,1101.6 1356,1146.8 1356,1146.9 1360,1146.3 1360,1101.6 1359.2,1101.6 		"/>
		<polygon fill="#666666" points="1356,1101.6 1356,1146.8 1356,1146.9 1360,1146.3 1360,1101.6 1359.2,1101.6 		"/>
		<polygon fill="#666666" points="1363,1101.6 1363,1145.8 1363,1145.9 1367,1145.3 1367,1101.5 1366.4,1101.5 		"/>
		<polygon fill="#666666" points="1363,1101.6 1363,1145.8 1363,1145.9 1367,1145.3 1367,1101.5 1366.4,1101.5 		"/>
		<polygon fill="#666666" points="2669,1114.4 2669,1326.3 2742,1337 2742,1332.9 2742,1114.7 		"/>
		<polygon fill="#666666" points="2669,1114.4 2669,1326.3 2742,1337 2742,1332.9 2742,1114.7 		"/>
		<polygon fill="#666666" points="2302,1113.3 2302,1272.5 2353,1280.1 2353,1277.1 2353,1113.4 		"/>
		<polygon fill="#666666" points="2302,1113.3 2302,1272.5 2353,1280.1 2353,1277.1 2353,1113.4 		"/>
		<polygon fill="#666666" points="2094,1112.6 2094,1242.1 2137,1248.4 2137,1246.1 2137,1112.8 		"/>
		<polygon fill="#666666" points="2094,1112.6 2094,1242.1 2137,1248.4 2137,1246.1 2137,1112.8 		"/>
		<polygon fill="#666666" points="1968,1112.2 1968,1223.6 2002,1228.6 2002,1226.7 2002,1112.3 		"/>
		<polygon fill="#666666" points="1968,1112.2 1968,1223.6 2002,1228.6 2002,1226.7 2002,1112.3 		"/>
		<polygon fill="#666666" points="1878,1111.9 1878,1210.5 1905,1214.4 1905,1212.9 1905,1112 		"/>
		<polygon fill="#666666" points="1878,1111.9 1878,1210.5 1905,1214.4 1905,1212.9 1905,1112 		"/>
		<polygon fill="#666666" points="1815,1111.7 1815,1201.2 1835,1204.2 1835,1202.9 1835,1111.8 		"/>
		<polygon fill="#666666" points="1815,1111.7 1815,1201.2 1835,1204.2 1835,1202.9 1835,1111.8 		"/>
		<polygon fill="#666666" points="1768,1111.6 1768,1194.3 1784,1196.7 1784,1195.6 1784,1111.6 		"/>
		<polygon fill="#666666" points="1768,1111.6 1768,1194.3 1784,1196.7 1784,1195.6 1784,1111.6 		"/>
		<polygon fill="#666666" points="1729,1111.5 1729,1188.6 1743,1190.6 1743,1189.6 1743,1111.5 		"/>
		<polygon fill="#666666" points="1729,1111.5 1729,1188.6 1743,1190.6 1743,1189.6 1743,1111.5 		"/>
		<polygon fill="#666666" points="1697,1111.4 1697,1183.9 1709,1185.7 1709,1184.7 1709,1111.4 		"/>
		<polygon fill="#666666" points="1697,1111.4 1697,1183.9 1709,1185.7 1709,1184.7 1709,1111.4 		"/>
		<polygon fill="#666666" points="1671,1111.3 1671,1180.2 1682,1181.7 1682,1180.9 1682,1111.3 		"/>
		<polygon fill="#666666" points="1671,1111.3 1671,1180.2 1682,1181.7 1682,1180.9 1682,1111.3 		"/>
		<polygon fill="#666666" points="1647,1111.2 1647,1176.6 1657,1178 1657,1177.2 1657,1111.2 		"/>
		<polygon fill="#666666" points="1647,1111.2 1647,1176.6 1657,1178 1657,1177.2 1657,1111.2 		"/>
		<polygon fill="#666666" points="1628,1111.1 1628,1173.8 1638,1175.3 1638,1174.5 1638,1111.2 		"/>
		<polygon fill="#666666" points="1628,1111.1 1628,1173.8 1638,1175.3 1638,1174.5 1638,1111.2 		"/>
		<polygon fill="#666666" points="1612,1111.1 1612,1171.5 1621,1172.8 1621,1172.1 1621,1111.1 		"/>
		<polygon fill="#666666" points="1612,1111.1 1612,1171.5 1621,1172.8 1621,1172.1 1621,1111.1 		"/>
		<polygon fill="#666666" points="1599,1111.1 1599,1169.6 1607,1170.7 1607,1170.1 1607,1111.1 		"/>
		<polygon fill="#666666" points="1599,1111.1 1599,1169.6 1607,1170.7 1607,1170.1 1607,1111.1 		"/>
		<polygon fill="#666666" points="1587,1111 1587,1167.8 1594,1168.9 1594,1168.3 1594,1111 		"/>
		<polygon fill="#666666" points="1587,1111 1587,1167.8 1594,1168.9 1594,1168.3 1594,1111 		"/>
		<polygon fill="#666666" points="1575,1111 1575,1166.1 1582,1167.1 1582,1166.6 1582,1111 		"/>
		<polygon fill="#666666" points="1575,1111 1575,1166.1 1582,1167.1 1582,1166.6 1582,1111 		"/>
		<polygon fill="#666666" points="1563,1110.9 1563,1164.3 1570,1165.4 1570,1164.8 1570,1111 		"/>
		<polygon fill="#666666" points="1563,1110.9 1563,1164.3 1570,1165.4 1570,1164.8 1570,1111 		"/>
		<polygon fill="#666666" points="1551,1110.9 1551,1162.5 1558,1163.6 1558,1163.1 1558,1110.9 		"/>
		<polygon fill="#666666" points="1551,1110.9 1551,1162.5 1558,1163.6 1558,1163.1 1558,1110.9 		"/>
		<polygon fill="#666666" points="1539,1110.9 1539,1160.8 1546,1161.8 1546,1161.4 1546,1110.9 		"/>
		<polygon fill="#666666" points="1539,1110.9 1539,1160.8 1546,1161.8 1546,1161.4 1546,1110.9 		"/>
		<polygon fill="#666666" points="1528,1110.8 1528,1159.2 1535,1160.2 1535,1159.8 1535,1110.9 		"/>
		<polygon fill="#666666" points="1528,1110.8 1528,1159.2 1535,1160.2 1535,1159.8 1535,1110.9 		"/>
		<polygon fill="#666666" points="1518,1110.8 1518,1157.7 1524,1158.6 1524,1158.2 1524,1110.8 		"/>
		<polygon fill="#666666" points="1518,1110.8 1518,1157.7 1524,1158.6 1524,1158.2 1524,1110.8 		"/>
		<polygon fill="#666666" points="1508,1110.8 1508,1156.3 1514,1157.2 1514,1156.8 1514,1110.8 		"/>
		<polygon fill="#666666" points="1508,1110.8 1508,1156.3 1514,1157.2 1514,1156.8 1514,1110.8 		"/>
		<polygon fill="#666666" points="1499,1110.7 1499,1155 1505,1155.8 1505,1155.4 1505,1110.8 		"/>
		<polygon fill="#666666" points="1499,1110.7 1499,1155 1505,1155.8 1505,1155.4 1505,1110.8 		"/>
		<polygon fill="#666666" points="1491,1110.7 1491,1153.8 1496,1154.5 1496,1154.2 1496,1110.7 		"/>
		<polygon fill="#666666" points="1491,1110.7 1491,1153.8 1496,1154.5 1496,1154.2 1496,1110.7 		"/>
		<polygon fill="#666666" points="1483,1110.7 1483,1152.6 1488,1153.3 1488,1153 1488,1110.7 		"/>
		<polygon fill="#666666" points="1483,1110.7 1483,1152.6 1488,1153.3 1488,1153 1488,1110.7 		"/>
		<polygon fill="#666666" points="1475,1110.7 1475,1151.4 1480,1152.1 1480,1151.9 1480,1110.7 		"/>
		<polygon fill="#666666" points="1475,1110.7 1475,1151.4 1480,1152.1 1480,1151.9 1480,1110.7 		"/>
		<polygon fill="#666666" points="1468,1110.6 1468,1150.4 1472,1151 1472,1150.8 1472,1110.7 		"/>
		<polygon fill="#666666" points="1468,1110.6 1468,1150.4 1472,1151 1472,1150.8 1472,1110.7 		"/>
		<polygon fill="#666666" points="1461,1110.6 1461,1149.4 1465,1150 1465,1149.8 1465,1110.6 		"/>
		<polygon fill="#666666" points="1461,1110.6 1461,1149.4 1465,1150 1465,1149.8 1465,1110.6 		"/>
		<polygon fill="#666666" points="1454,1110.6 1454,1148.4 1458,1149 1458,1148.8 1458,1110.6 		"/>
		<polygon fill="#666666" points="1454,1110.6 1454,1148.4 1458,1149 1458,1148.8 1458,1110.6 		"/>
		<polygon fill="#666666" points="1447,1110.6 1447,1147.3 1451,1148 1451,1147.8 1451,1110.6 		"/>
		<polygon fill="#666666" points="1447,1110.6 1447,1147.3 1451,1148 1451,1147.8 1451,1110.6 		"/>
		<polygon fill="#666666" points="1440,1110.6 1440,1146.3 1444,1146.9 1444,1146.8 1444,1110.6 		"/>
		<polygon fill="#666666" points="1440,1110.6 1440,1146.3 1444,1146.9 1444,1146.8 1444,1110.6 		"/>
		<polygon fill="#666666" points="1433.1,1101.5 1433.1,1101.6 1433.6,1101.5 		"/>
		<polygon fill="#666666" points="1433.1,1101.5 1433.1,1101.6 1433.6,1101.5 		"/>
		<polygon fill="#666666" points="1433,1110.5 1433,1145.3 1437,1145.9 1437,1145.8 1437,1110.5 		"/>
		<polygon fill="#666666" points="1433,1110.5 1433,1145.3 1437,1145.9 1437,1145.8 1437,1110.5 		"/>
		<polygon fill="#CCCCCC" points="1431,1107.1 1431,1108.8 2800,1084.4 2800,1054 		"/>
		<polygon fill="#CCCCCC" points="1431,1107.1 1431,1108.8 2800,1084.4 2800,1054 		"/>
		<polygon fill="#CCCCCC" points="1433.6,1101.5 1433.3,1101.6 1431,1101.8 1431,1103.6 2800,993.2 2800,962.8 		"/>
		<polygon fill="#CCCCCC" points="1433.6,1101.5 1433.3,1101.6 1431,1101.8 1431,1103.6 2800,993.2 2800,962.8 		"/>
		<polygon fill="#808080" points="1431,1108.8 1431,1110.5 1433.3,1110.5 1437.4,1110.5 1438.2,1110.6 1440.1,1110.6 1444.3,1110.6 
			1445.3,1110.6 1447,1110.6 1451.3,1110.6 1452.4,1110.6 1454,1110.6 1458.2,1110.6 1459.5,1110.6 1460.9,1110.6 1465.2,1110.6 
			1466.6,1110.6 1467.9,1110.6 1472.1,1110.7 1473.7,1110.7 1475.1,1110.7 1479.8,1110.7 1481.5,1110.7 1482.8,1110.7 
			1487.5,1110.7 1489.4,1110.7 1490.9,1110.7 1496.1,1110.7 1498.2,1110.7 1499.4,1110.7 1504.6,1110.8 1506.9,1110.8 
			1508.4,1110.8 1514.3,1110.8 1516.7,1110.8 1518,1110.8 1523.9,1110.8 1526.6,1110.8 1528.2,1110.8 1535,1110.9 1537.9,1110.9 
			1539.3,1110.9 1546,1110.9 1549.2,1110.9 1550.7,1110.9 1558.1,1110.9 1561.5,1110.9 1562.8,1110.9 1570.2,1111 1573.8,1111 
			1574.9,1111 1582.2,1111 1586.2,1111 1587,1111 1594.3,1111 1598.5,1111.1 1599.2,1111.1 1606.5,1111.1 1611,1111.1 
			1611.9,1111.1 1620.7,1111.1 1625.5,1111.1 1627.9,1111.1 1637.8,1111.2 1642.9,1111.2 1646.7,1111.2 1656.5,1111.2 
			1662.1,1111.3 1671.1,1111.3 1682,1111.3 1688.1,1111.3 1696.6,1111.4 1708.7,1111.4 1715.3,1111.4 1728.6,1111.5 1742.6,1111.5 
			1750,1111.5 1767.7,1111.6 1784.4,1111.6 1792.7,1111.7 1814.7,1111.7 1835.3,1111.8 1844.7,1111.8 1878.2,1111.9 1905.1,1112 
			1916,1112.1 1967.7,1112.2 2001.5,1112.3 2014.5,1112.4 2094,1112.6 2137.1,1112.8 2153,1112.8 2301.5,1113.3 2353.4,1113.4 
			2374,1113.5 2668.6,1114.4 2742,1114.7 2771,1114.8 2800,1114.8 2800,1084.4 		"/>
		<polygon fill="#808080" points="1431,1108.8 1431,1110.5 1433.3,1110.5 1437.4,1110.5 1438.2,1110.6 1440.1,1110.6 1444.3,1110.6 
			1445.3,1110.6 1447,1110.6 1451.3,1110.6 1452.4,1110.6 1454,1110.6 1458.2,1110.6 1459.5,1110.6 1460.9,1110.6 1465.2,1110.6 
			1466.6,1110.6 1467.9,1110.6 1472.1,1110.7 1473.7,1110.7 1475.1,1110.7 1479.8,1110.7 1481.5,1110.7 1482.8,1110.7 
			1487.5,1110.7 1489.4,1110.7 1490.9,1110.7 1496.1,1110.7 1498.2,1110.7 1499.4,1110.7 1504.6,1110.8 1506.9,1110.8 
			1508.4,1110.8 1514.3,1110.8 1516.7,1110.8 1518,1110.8 1523.9,1110.8 1526.6,1110.8 1528.2,1110.8 1535,1110.9 1537.9,1110.9 
			1539.3,1110.9 1546,1110.9 1549.2,1110.9 1550.7,1110.9 1558.1,1110.9 1561.5,1110.9 1562.8,1110.9 1570.2,1111 1573.8,1111 
			1574.9,1111 1582.2,1111 1586.2,1111 1587,1111 1594.3,1111 1598.5,1111.1 1599.2,1111.1 1606.5,1111.1 1611,1111.1 
			1611.9,1111.1 1620.7,1111.1 1625.5,1111.1 1627.9,1111.1 1637.8,1111.2 1642.9,1111.2 1646.7,1111.2 1656.5,1111.2 
			1662.1,1111.3 1671.1,1111.3 1682,1111.3 1688.1,1111.3 1696.6,1111.4 1708.7,1111.4 1715.3,1111.4 1728.6,1111.5 1742.6,1111.5 
			1750,1111.5 1767.7,1111.6 1784.4,1111.6 1792.7,1111.7 1814.7,1111.7 1835.3,1111.8 1844.7,1111.8 1878.2,1111.9 1905.1,1112 
			1916,1112.1 1967.7,1112.2 2001.5,1112.3 2014.5,1112.4 2094,1112.6 2137.1,1112.8 2153,1112.8 2301.5,1113.3 2353.4,1113.4 
			2374,1113.5 2668.6,1114.4 2742,1114.7 2771,1114.8 2800,1114.8 2800,1084.4 		"/>
		<polygon fill="#808080" points="1431,1103.6 1431,1105.3 2800,1023.6 2800,993.2 		"/>
		<polygon fill="#808080" points="1431,1103.6 1431,1105.3 2800,1023.6 2800,993.2 		"/>
		<polygon fill="#B3B3B3" points="1431,1105.3 1431,1107.1 2800,1054 2800,1023.6 		"/>
		<polygon fill="#B3B3B3" points="1431,1105.3 1431,1107.1 2800,1054 2800,1023.6 		"/>
	</g>
	<g>
		<polygon fill="#FFFFFF" points="0,962.8 0,993.2 0,1023.6 0,1054 0,1084.4 0,1114.8 1369.3,1110.5 1369.3,1108.8 1369.3,1107.1 
			1369.3,1105.3 1369.3,1103.6 1369.3,1101.8 		"/>
		<polygon fill="#CCCCCC" points="0,1084.4 1369.3,1108.8 1369.3,1107.1 0,1054 		"/>
		<polygon fill="#CCCCCC" points="0,962.8 0,993.2 1369.3,1103.6 1369.3,1101.8 		"/>
		<polygon fill="#808080" points="0,1114.8 1369.3,1110.5 1369.3,1108.8 0,1084.4 		"/>
		<polygon fill="#808080" points="0,1023.6 1369.3,1105.3 1369.3,1103.6 0,993.2 		"/>
		<polygon fill="#B3B3B3" points="0,1054 1369.3,1107.1 1369.3,1105.3 0,1023.6 		"/>
	</g>
	<g>
		<polygon fill="#373E4E" points="2800,1800 2800,1311.2 1430.7,1114.8 1400,1114.8 1369.3,1114.8 0,1311.2 0,1800 		"/>
		<polygon fill="#FFFFFF" points="2800,1800 2800,1365.6 1437.3,1117.2 1424.1,1114.8 1375.9,1114.8 1359.6,1117.8 0,1365.6 0,1800 
					"/>
		<polygon fill="#373E4E" points="2800,1800 2800,1401.8 1432.7,1117.2 1421.1,1114.8 1378.9,1114.8 1364.6,1117.8 0,1401.8 0,1800 
					"/>
		<polygon fill="#F9A533" points="1754.9,1800 1403.5,1117.2 1402.3,1114.8 1397.7,1114.8 1396.2,1117.8 1045.1,1800 		"/>
		<polygon fill="#373E4E" points="1531.6,1800 1401.3,1117.2 1400.8,1114.8 1399.2,1114.8 1398.6,1117.8 1268.4,1800 		"/>
	</g>
</g>
</svg>
